<svg width="43" height="44" viewBox="0 0 43 44" fill="none" xmlns="http://www.w3.org/2000/svg">
<mask id="mask0_276_2309" style="mask-type:luminance" maskUnits="userSpaceOnUse" x="0" y="0" width="43" height="44">
<path d="M0.333313 0.557281H43V43.5573H0.333313V0.557281Z" fill="white"/>
</mask>
<g mask="url(#mask0_276_2309)">
<path d="M40.5365 24.6719L37.5469 22.9479C37.5729 22.6094 37.5833 22.276 37.5833 21.9375C37.5833 21.6042 37.5729 21.2708 37.5469 20.9271L40.5521 19.2031C42.224 18.2239 42.8177 16.0469 41.8542 14.3281L38.2865 8.15624C37.3021 6.47916 35.125 5.89062 33.4167 6.85416L30.4167 8.57812C29.8542 8.20312 29.2708 7.86978 28.6719 7.5677V4.11978C28.6719 2.15624 27.0729 0.557281 25.1094 0.557281H17.9844C16.0156 0.557281 14.4167 2.15624 14.4167 4.11978V7.5677C13.8177 7.86978 13.2344 8.20312 12.6719 8.57812L9.66147 6.84374C7.96355 5.88541 5.78647 6.47916 4.80209 8.16666L1.22917 14.3489C0.276049 16.0469 0.864592 18.2239 2.55209 19.2083L5.54167 20.9271C5.52084 21.2708 5.51042 21.6042 5.51042 21.9375C5.51042 22.276 5.52084 22.6094 5.54167 22.9479L2.54688 24.6771C0.864592 25.6562 0.276048 27.8333 1.23959 29.5469L4.8073 35.7239C5.78647 37.401 7.96876 37.9896 9.67709 37.0208L12.6719 35.2969C13.2344 35.6719 13.8177 36.0052 14.4167 36.3073V39.7604C14.4167 41.724 16.0156 43.3229 17.9792 43.3229H25.1094C27.0729 43.3229 28.6719 41.724 28.6719 39.7604V36.3073C29.2708 36.0104 29.8542 35.6719 30.4167 35.3021L33.4271 37.0312C35.1198 37.9896 37.3021 37.401 38.2865 35.7135L41.849 29.5469C41.8542 29.5417 41.8542 29.5364 41.8594 29.5312C42.8177 27.8333 42.224 25.6562 40.5365 24.6719ZM38.7552 27.7812L35.1927 33.9375L31.2031 31.6406C30.5781 31.276 29.7917 31.3333 29.2188 31.776C28.2917 32.4948 27.2865 33.0781 26.224 33.5104C25.5469 33.7812 25.1094 34.4375 25.1094 35.1614V39.7604H17.9844V35.1614C17.9844 34.4375 17.5417 33.7812 16.8698 33.5104C15.8073 33.0781 14.7969 32.4948 13.8698 31.776C13.5521 31.526 13.1667 31.401 12.7813 31.401C12.474 31.401 12.1667 31.4792 11.8906 31.6406L7.88542 33.9323L4.32813 27.7604L8.32292 25.4583C8.94792 25.0989 9.29688 24.3906 9.19792 23.6719C9.11459 23.0625 9.07292 22.4948 9.07292 21.9375C9.07292 21.3854 9.11459 20.8177 9.19792 20.2031C9.29688 19.4896 8.95313 18.776 8.32292 18.4167L4.32292 16.1146L7.89584 9.93749L11.8854 12.2396C12.5156 12.6042 13.2969 12.5469 13.8698 12.1042C14.8021 11.3802 15.8073 10.7969 16.8698 10.3698C17.5417 10.0989 17.9844 9.4427 17.9844 8.71874V4.11978H25.1094V8.71874C25.1094 9.4427 25.5521 10.0989 26.224 10.3698C27.2813 10.7969 28.2917 11.3802 29.2188 12.1042C29.7917 12.5469 30.5781 12.6042 31.2031 12.2396L35.2031 9.94791L38.7604 16.1198L34.7708 18.4167C34.1406 18.7812 33.7969 19.4896 33.8958 20.2083C33.9792 20.8177 34.0208 21.3854 34.0208 21.9375C34.0208 22.4948 33.9792 23.0625 33.8906 23.6771C33.7917 24.3906 34.1406 25.0989 34.7708 25.4635L38.7552 27.7604C38.7604 27.7604 38.7604 27.7656 38.7552 27.7812Z" fill="#8A6AD8"/>
</g>
<path d="M21.5469 13.0312C16.6354 13.0312 12.6354 17.026 12.6354 21.9375C12.6354 26.8542 16.6354 30.849 21.5469 30.849C26.4584 30.849 30.4531 26.8542 30.4531 21.9375C30.4531 17.026 26.4584 13.0312 21.5469 13.0312ZM21.5469 27.2865C18.599 27.2865 16.1979 24.8854 16.1979 21.9375C16.1979 18.9896 18.599 16.5938 21.5469 16.5938C24.4948 16.5938 26.8906 18.9896 26.8906 21.9375C26.8906 24.8854 24.4948 27.2865 21.5469 27.2865Z" fill="#8A6AD8"/>
</svg>
